<?xml version="1.0" encoding="UTF-8"?>
<svg id="Laag_2" data-name="Laag 2" xmlns="http://www.w3.org/2000/svg" viewBox="0 0 1070.8 1308.87">
  <defs>
    <style>
      .cls-1 {
        fill: #000;
      }

      .cls-1, .cls-2, .cls-3, .cls-4 {
        stroke-width: 0px;
      }

      .cls-2 {
        fill: #006d33;
      }

      .cls-3 {
        fill: #3baa35;
      }

      .cls-4 {
        fill: none;
      }
    </style>
  </defs>
  <g id="Laag_1-2" data-name="Laag 1">
    <g>
      <path class="cls-4" d="M953.74,974.09c1.99,14.36-8.37,24.33-21.59,21.6-3.88-.8-6.77-3.08-7.25-7.19-.52-4.38,1.98-7.65,5.84-8.81,7.53-2.25,15.27-3.77,22.99-5.61Z"/>
      <g>
        <path class="cls-2" d="M505.54,561.05c.03-17.42,13.29-30.52,31.59-30.02,27.04.74,51.16-7.11,72.72-23.07,25.26-18.69,43.5-42.36,50.97-73.47,5.05-21.04,2.12-41.76-3.45-62.06-9.93-36.16-30.78-64.18-64.24-82.08-13.02-6.97-26.96-11.26-41.63-12.94-15.02-1.72-26.54-10.09-29.86-22.04-5.16-18.58,5.53-35.47,25.28-38.26,18.99-2.69,32.38-11.99,40.01-29.59.46-1.06,1.04-2.08,1.61-3.09,8.26-14.66,16.14-17.39,31.73-10.97,6.6,2.72,13.23,5.4,19.74,8.34,10.99,4.96,14.17,11.16,12.28,23.09-1.71,10.83-3.55,21.64-4.86,32.52-.35,2.89.37,6.36,1.75,8.94,10.15,18.95,23.55,34.78,44.32,42.6,4.3,1.62,9.4,2.31,13.95,1.78,7.71-.89,15.36-2.74,22.86-4.81,13.61-3.76,20.69-.87,26.59,11.93,3.54,7.7,6.84,15.51,9.98,23.38,4.33,10.85,2.06,18.04-7.7,24.38-5.43,3.53-11.21,6.54-16.68,10.02-11.17,7.12-18.54,16.86-18.75,30.55-.21,12.98-.33,26.02.69,38.94.91,11.49,8.48,19.17,18.03,24.9,5.56,3.34,11.31,6.39,16.8,9.84,9.67,6.07,12.48,13.65,8.6,24.34-3.11,8.58-6.6,17.06-10.45,25.34-4.91,10.56-12.8,13.87-24.22,11.31-9.23-2.07-18.49-4.14-27.84-5.5-8.13-1.17-15.65,1.45-21.6,7.09-8.94,8.47-17.75,17.11-26.1,26.15-9.79,10.61-12.73,22.96-7.83,36.95,1.97,5.63,3.34,11.48,4.73,17.29,2.01,8.41-.34,15.8-7.99,19.65-10.93,5.51-22.32,10.27-33.86,14.37-6.72,2.39-12.89-.76-17.03-6.5-3.68-5.12-7.01-10.53-10.04-16.06-8.53-15.54-21.52-22.76-39.22-22.58-6.89.07-14.08-.49-20.63-2.43-13-3.86-20.26-14.77-20.24-28.23Z"/>
        <path class="cls-3" d="M501.33,635.61c10.66,0,21.34-.3,31.99.09,10.49.39,16.99,7.58,16.87,17.73-.11,9.06-7.78,16.8-17.55,16.84-12.44.05-24.89-.63-37.33-.8-10.49-.14-20.99.2-31.48-.05-25.51-.59-41.07-14.44-44.11-39.73-3.34-27.76-10.68-54.51-21.46-80.13-14.56-34.6-29.82-68.94-45.81-102.9-15.15-32.18-21.86-65.6-20.22-101.06,2.56-55.27,25.16-101.06,64.93-138.65,28.5-26.95,62.23-44.24,101.04-50.77,11.44-1.92,23.13-2.67,34.75-3.17,8.93-.38,16.19,6.78,17.2,15.58,1.16,10.09-6.19,18.19-17.34,18.9-21.2,1.36-42.09,4.59-61.53,13.45-51.88,23.63-86.37,62.47-99.89,118.33-9.73,40.18-4.11,78.44,14.92,115.54,15.22,29.68,28.47,60.44,41.18,91.3,10.36,25.15,18.94,51.08,24.18,77.92,1.34,6.85,2.23,13.77,3.45,20.64,1.29,7.27,3.94,10.02,11.24,10.22,11.65.33,23.31.09,34.97.09,0,.21,0,.42,0,.63Z"/>
        <path class="cls-1" d="M609.36,357.85c1.61-.23,4.45-.43,7.19-1.07,5.4-1.28,8.98.33,10.68,5.81.83,2.7,1.85,5.35,2.98,7.93,2.14,4.87.51,8.12-3.8,10.83-7.22,4.54-12.08,10.82-13.22,19.58-1.05,8.1,1.41,14.75,7.86,19.86.65.52,1.3,1.04,1.97,1.53,10.78,7.94,11.57,11.65,4.93,23.22-2.93,5.11-6.28,6.98-11.6,4.55-12.99-5.91-29.59,6.53-31.91,19.18-.71,3.84.13,8.21,1.19,12.08,1.51,5.52.84,8.44-4.06,11.35-.57.34-1.18.62-1.77.91-12.82,6.3-13.58,6.1-21.65-5.65-9.08-13.22-29.83-12.82-39.22.76-7.68,11.11-8.09,11.22-20.5,5.74-7.67-3.39-8.66-5.45-6.51-13.55,3.37-12.7-5.82-28.48-18.71-31.12-3.66-.75-7.91.16-11.63,1.23-6.65,1.91-9.96.92-13.13-5.18-.84-1.62-1.54-3.32-2.2-5.02-3.1-8.06-2.46-10.69,4.72-15.56,9.88-6.71,13.94-15.49,11.55-27.45-1.29-6.47-4.7-10.82-10.2-13.94-3.72-2.11-9.05-3.85-7.88-9.02,1.35-5.95,4.1-11.75,7.28-17,.85-1.4,5.56-1.01,8.35-.56,10.67,1.72,19.81-.87,27.17-8.91,4.98-5.44,6.81-11.66,4.33-18.89-.7-2.03-1.15-4.18-1.42-6.31-.5-4.1,1.12-7.19,5.03-8.77,12.91-5.24,15.06-9.24,23.95,5.17,8.86,14.36,29.68,11.42,36.94.1.45-.7,1.02-1.32,1.52-1.98,7.4-9.91,16.2-10.5,25.35-1.69,3.46,3.33,2.81,7.3,1.45,11.15-5.18,14.76,10.51,31,24.98,30.7ZM539.38,455.11c30.43-1.16,51.15-23.46,49.93-53.73-1.13-27.95-24.78-50.14-52.54-49.26-28.71.91-51.1,25.11-49.93,53.97,1.15,28.29,24.51,50.08,52.54,49.02Z"/>
        <path class="cls-1" d="M535.24,702.5c30.81,0,61.63-.08,92.44.04,10.93.04,18.06,7.83,17.6,18.6-.36,8.26-7.54,15.43-16.66,16.49-2.31.27-4.65.27-6.98.27-55.63.01-111.26.03-166.89-.03-4.81,0-9.7-.08-14.42-.9-9.65-1.66-15.78-9.75-14.79-18.76,1.1-9.96,7.48-15.73,17.77-15.75,30.65-.06,61.29-.02,91.94-.02v.04Z"/>
        <path class="cls-1" d="M534.91,800.91c-13.99,0-27.98.1-41.97-.03-13.94-.13-20.45-7.64-18.79-21.35.97-8.01,7.07-13.81,15.71-13.86,30.15-.19,60.3-.19,90.44,0,9.29.06,15.9,7.78,15.95,17.64.05,10.21-6.05,17.25-15.87,17.43-15.15.27-30.31.07-45.47.07,0,.03,0,.07,0,.1Z"/>
        <path class="cls-1" d="M834.55,353.43c-13.15,0-26.29.13-39.44-.05-7.36-.1-12.3-3.58-14.25-9.62-1.95-6.04-1.23-11.91,3.95-15.84,2.98-2.27,7.16-4.09,10.82-4.14,25.45-.34,50.92-.32,76.37-.08,12.03.11,19.97,10.23,16.33,20.09-2.31,6.25-7.45,9.59-15.35,9.64-12.81.08-25.63.02-38.44.02v-.02Z"/>
        <path class="cls-1" d="M718.07,173.02c-3.69-3.13-6.89-5.54-9.72-8.33-5.16-5.09-5.17-13.42.26-19.43,6.13-6.79,12.58-13.3,19.05-19.78,11.18-11.2,22.46-22.29,33.73-33.4,1.66-1.63,3.34-3.28,5.21-4.64,6.06-4.4,12.23-4.25,17.36.25,5.9,5.19,7.61,11.97,4.1,18.35-1.66,3.01-3.95,5.78-6.39,8.23-15.76,15.8-31.48,31.65-47.58,47.1-4.61,4.43-10.4,7.62-16.03,11.64Z"/>
        <path class="cls-1" d="M281.05,98.97c.19-6.59,3.92-10.79,9.59-13.35,5.51-2.49,10.65-1.79,15.09,2.66,18.79,18.85,37.67,37.62,56.39,56.55,3.99,4.04,6.59,8.92,4,14.88-2.74,6.31-7.51,10.19-14.46,10.58-2.15.12-4.63-.72-6.52-1.85-2.68-1.6-5.15-3.68-7.38-5.89-16.77-16.64-33.45-33.37-50.18-50.05-3.76-3.75-6.65-7.89-6.53-13.52Z"/>
        <path class="cls-1" d="M550.03,53.52c0,12.49.16,24.98-.05,37.47-.19,11.82-6.34,17.72-16.82,16.64-7.16-.73-12.23-6.88-12.81-16.05-.34-5.31-.16-10.65-.15-15.98.06-19.65.08-39.31.25-58.96.09-9.7,3.93-14.64,12.15-16.26,9.32-1.83,16.53,3.07,16.92,12.69.56,13.46.14,26.96.14,40.45.12,0,.24,0,.37,0Z"/>
        <path class="cls-1" d="M236.72,352.69c-13.17,0-26.33.17-39.5-.06-9.81-.17-15.02-5.35-15.03-14.23-.01-7.9,5.91-14.6,13.98-14.67,26.83-.22,53.66-.23,80.49-.02,9.02.07,14.76,6.6,14.56,15.45-.17,7.72-6.33,13.36-15.01,13.43-13.16.11-26.33.03-39.49.03,0,.02,0,.05,0,.07Z"/>
        <path class="cls-4" d="M539.38,455.11c-28.02,1.07-51.39-20.73-52.54-49.02-1.17-28.86,21.22-53.06,49.93-53.97,27.75-.88,51.41,21.3,52.54,49.26,1.22,30.27-19.51,52.57-49.93,53.73Z"/>
      </g>
      <g>
        <path class="cls-1" d="M0,971.9c0-6.8.65-13.44,1.95-19.93,1.3-6.49,3.32-12.7,6.04-18.62,2.73-5.92,6.18-11.4,10.38-16.45h15.26c-5.7,7.81-10.02,16.44-12.97,25.88-2.95,9.44-4.42,19.1-4.42,28.99,0,6.43.65,12.83,1.95,19.2,1.3,6.37,3.24,12.5,5.83,18.4,2.58,5.9,5.75,11.41,9.49,16.54h-15.14c-4.19-4.88-7.65-10.22-10.38-16.02-2.73-5.8-4.74-11.9-6.04-18.31-1.3-6.41-1.95-12.97-1.95-19.68Z"/>
        <path class="cls-1" d="M71.98,1006.14l-26-68.24h19.47l13.18,38.88c.73,2.28,1.31,4.68,1.74,7.2.43,2.52.72,4.78.88,6.78h.49c.12-2.16.42-4.46.88-6.9s1.09-4.8,1.86-7.08l13.12-38.88h19.47l-26,68.24h-19.1Z"/>
        <path class="cls-1" d="M163.61,936.62c6.31,0,11.74,1.21,16.3,3.63,4.56,2.42,8.08,5.93,10.56,10.53,2.48,4.6,3.72,10.21,3.72,16.85v9.03h-44.01c.2,5.25,1.78,9.37,4.73,12.36,2.95,2.99,7.05,4.49,12.3,4.49,4.35,0,8.34-.45,11.96-1.34,3.62-.9,7.34-2.24,11.17-4.03v14.4c-3.38,1.67-6.91,2.89-10.59,3.66-3.68.77-8.15,1.16-13.4,1.16-6.84,0-12.89-1.26-18.16-3.78-5.27-2.52-9.4-6.37-12.39-11.54-2.99-5.17-4.49-11.68-4.49-19.53s1.35-14.62,4.06-19.93c2.71-5.31,6.48-9.3,11.32-11.96,4.84-2.66,10.48-4,16.91-4ZM163.73,949.87c-3.62,0-6.62,1.16-9,3.48-2.38,2.32-3.75,5.96-4.12,10.92h26.12c-.04-2.77-.54-5.23-1.5-7.39-.96-2.16-2.38-3.87-4.27-5.13-1.89-1.26-4.3-1.89-7.23-1.89Z"/>
        <path class="cls-1" d="M256.04,936.62c.94,0,2.02.05,3.27.15,1.24.1,2.25.23,3.02.4l-1.4,17.46c-.61-.2-1.48-.36-2.59-.46-1.12-.1-2.09-.15-2.9-.15-2.4,0-4.73.31-6.99.92-2.26.61-4.28,1.6-6.07,2.96-1.79,1.36-3.2,3.15-4.24,5.37-1.04,2.22-1.56,4.93-1.56,8.15v34.73h-18.62v-68.24h14.1l2.75,11.47h.92c1.34-2.32,3.02-4.45,5.04-6.38,2.01-1.93,4.31-3.48,6.9-4.64,2.58-1.16,5.38-1.74,8.39-1.74Z"/>
        <path class="cls-1" d="M310.93,971.9c0,6.71-.65,13.27-1.95,19.68-1.3,6.41-3.31,12.51-6.01,18.31-2.71,5.8-6.18,11.14-10.41,16.02h-15.14c3.78-5.13,6.96-10.64,9.52-16.54,2.56-5.9,4.5-12.03,5.8-18.4,1.3-6.37,1.95-12.77,1.95-19.2s-.66-13.1-1.98-19.53c-1.32-6.43-3.27-12.62-5.83-18.58-2.56-5.96-5.76-11.54-9.58-16.75h15.26c4.23,5.05,7.7,10.53,10.41,16.45,2.71,5.92,4.71,12.13,6.01,18.62,1.3,6.49,1.95,13.13,1.95,19.93Z"/>
        <path class="cls-3" d="M445.41,916.91l-22.71,89.23h-21.55l-12.08-46.88c-.24-.89-.57-2.26-.98-4.09-.41-1.83-.83-3.83-1.28-6.01-.45-2.18-.84-4.23-1.19-6.16s-.58-3.47-.7-4.61c-.12,1.14-.36,2.67-.7,4.58-.35,1.91-.73,3.95-1.16,6.1-.43,2.16-.84,4.17-1.25,6.04-.41,1.87-.73,3.3-.98,4.27l-12.02,46.75h-21.48l-22.77-89.23h18.62l11.41,48.71c.33,1.46.7,3.21,1.13,5.25.43,2.04.85,4.16,1.28,6.38.43,2.22.81,4.35,1.16,6.41s.6,3.83.76,5.34c.2-1.55.47-3.35.79-5.4.33-2.05.68-4.15,1.07-6.29.39-2.14.78-4.12,1.19-5.95.41-1.83.77-3.32,1.1-4.46l13-49.99h17.88l13,49.99c.28,1.1.62,2.57,1.01,4.43s.78,3.86,1.19,6.01c.41,2.16.78,4.26,1.13,6.32s.6,3.83.76,5.34c.28-2.04.68-4.51,1.19-7.42s1.06-5.81,1.65-8.7c.59-2.89,1.11-5.31,1.56-7.26l11.35-48.71h18.62Z"/>
        <path class="cls-3" d="M525.81,971.9c0,5.7-.76,10.74-2.29,15.14-1.53,4.39-3.74,8.11-6.65,11.14-2.91,3.03-6.41,5.32-10.5,6.87-4.09,1.55-8.7,2.32-13.82,2.32-4.8,0-9.21-.77-13.21-2.32s-7.49-3.83-10.44-6.87c-2.95-3.03-5.23-6.74-6.84-11.14-1.61-4.39-2.41-9.44-2.41-15.14,0-7.57,1.34-13.98,4.03-19.23s6.51-9.24,11.47-11.96c4.96-2.73,10.88-4.09,17.76-4.09,6.39,0,12.05,1.36,17,4.09,4.94,2.73,8.83,6.71,11.66,11.96s4.24,11.66,4.24,19.23ZM478.63,971.9c0,4.48.49,8.24,1.46,11.29s2.5,5.35,4.58,6.9c2.08,1.55,4.78,2.32,8.12,2.32s5.97-.77,8.03-2.32c2.05-1.55,3.56-3.84,4.52-6.9s1.43-6.82,1.43-11.29-.48-8.27-1.43-11.26c-.96-2.99-2.47-5.24-4.55-6.74-2.08-1.5-4.78-2.26-8.12-2.26-4.92,0-8.49,1.69-10.71,5.07-2.22,3.38-3.33,8.44-3.33,15.2Z"/>
        <path class="cls-3" d="M588.57,936.62c7.28,0,13.14,1.98,17.58,5.95,4.43,3.97,6.65,10.33,6.65,19.07v44.49h-18.62v-39.86c0-4.88-.89-8.57-2.66-11.05-1.77-2.48-4.55-3.72-8.33-3.72-5.7,0-9.58,1.93-11.66,5.8-2.08,3.87-3.11,9.44-3.11,16.72v32.1h-18.62v-68.24h14.22l2.5,8.73h1.04c1.46-2.36,3.29-4.27,5.46-5.74s4.6-2.54,7.26-3.24c2.66-.69,5.42-1.04,8.27-1.04Z"/>
        <path class="cls-3" d="M662.2,1007.36c-7.61,0-13.8-2.98-18.58-8.94-4.78-5.96-7.17-14.72-7.17-26.28s2.42-20.52,7.26-26.52c4.84-6,11.17-9,18.98-9,3.25,0,6.12.45,8.61,1.34,2.48.89,4.63,2.1,6.44,3.6,1.81,1.51,3.35,3.19,4.61,5.07h.61c-.24-1.3-.54-3.22-.88-5.77-.35-2.54-.52-5.16-.52-7.84v-21.85h18.68v94.97h-14.28l-3.6-8.85h-.79c-1.18,1.87-2.66,3.57-4.43,5.1-1.77,1.53-3.88,2.74-6.32,3.63s-5.31,1.34-8.61,1.34ZM668.73,992.53c5.09,0,8.68-1.51,10.77-4.55,2.09-3.03,3.2-7.6,3.33-13.7v-2.01c0-6.63-1.02-11.71-3.05-15.23-2.04-3.52-5.82-5.28-11.35-5.28-4.11,0-7.32,1.77-9.64,5.31s-3.48,8.65-3.48,15.32,1.17,11.7,3.51,15.08c2.34,3.38,5.65,5.07,9.92,5.07Z"/>
        <path class="cls-3" d="M756.46,936.62c6.31,0,11.74,1.21,16.3,3.63,4.56,2.42,8.08,5.93,10.56,10.53,2.48,4.6,3.72,10.21,3.72,16.85v9.03h-44.01c.2,5.25,1.78,9.37,4.73,12.36,2.95,2.99,7.05,4.49,12.3,4.49,4.35,0,8.34-.45,11.96-1.34,3.62-.9,7.34-2.24,11.17-4.03v14.4c-3.38,1.67-6.91,2.89-10.59,3.66-3.68.77-8.15,1.16-13.4,1.16-6.84,0-12.89-1.26-18.16-3.78-5.27-2.52-9.4-6.37-12.39-11.54-2.99-5.17-4.49-11.68-4.49-19.53s1.35-14.62,4.06-19.93c2.71-5.31,6.48-9.3,11.32-11.96,4.84-2.66,10.48-4,16.91-4ZM756.58,949.87c-3.62,0-6.62,1.16-9,3.48-2.38,2.32-3.75,5.96-4.12,10.92h26.12c-.04-2.77-.54-5.23-1.5-7.39-.96-2.16-2.38-3.87-4.27-5.13-1.89-1.26-4.3-1.89-7.23-1.89Z"/>
        <path class="cls-3" d="M848.88,936.62c.94,0,2.02.05,3.27.15,1.24.1,2.25.23,3.02.4l-1.4,17.46c-.61-.2-1.48-.36-2.59-.46-1.12-.1-2.09-.15-2.9-.15-2.4,0-4.73.31-6.99.92-2.26.61-4.28,1.6-6.07,2.96-1.79,1.36-3.2,3.15-4.24,5.37-1.04,2.22-1.56,4.93-1.56,8.15v34.73h-18.62v-68.24h14.1l2.75,11.47h.92c1.34-2.32,3.02-4.45,5.04-6.38,2.01-1.93,4.31-3.48,6.9-4.64,2.58-1.16,5.38-1.74,8.39-1.74Z"/>
        <path class="cls-3" d="M894.8,1006.14h-18.62v-94.97h18.62v94.97Z"/>
        <path class="cls-3" d="M950.91,936.5c9.16,0,16.17,1.99,21.06,5.98,4.88,3.99,7.32,10.05,7.32,18.19v45.47h-13l-3.6-9.28h-.49c-1.95,2.44-3.95,4.44-5.98,5.98-2.03,1.55-4.37,2.69-7.02,3.42-2.65.73-5.86,1.1-9.64,1.1-4.03,0-7.64-.77-10.83-2.32s-5.71-3.92-7.54-7.11c-1.83-3.19-2.75-7.25-2.75-12.18,0-7.24,2.54-12.58,7.63-16.02,5.09-3.44,12.71-5.34,22.89-5.71l11.84-.37v-2.99c0-3.58-.94-6.21-2.81-7.87-1.87-1.67-4.48-2.5-7.81-2.5s-6.53.47-9.7,1.4c-3.17.94-6.35,2.12-9.52,3.54l-6.17-12.57c3.62-1.91,7.68-3.42,12.18-4.52,4.5-1.1,9.14-1.65,13.95-1.65ZM960.8,974.53l-7.2.24c-6.02.16-10.2,1.24-12.54,3.24-2.34,1.99-3.51,4.62-3.51,7.87,0,2.85.83,4.87,2.5,6.07,1.67,1.2,3.85,1.8,6.53,1.8,3.99,0,7.35-1.18,10.1-3.54,2.75-2.36,4.12-5.72,4.12-10.07v-5.62Z"/>
        <path class="cls-3" d="M1025.7,911.17v22.09c0,2.56-.07,5.11-.21,7.63-.14,2.52-.32,4.48-.52,5.86h.73c1.79-2.81,4.23-5.2,7.32-7.17,3.09-1.97,7.1-2.96,12.02-2.96,7.65,0,13.85,2.99,18.62,8.97,4.76,5.98,7.14,14.75,7.14,26.31,0,7.77-1.1,14.29-3.3,19.56s-5.27,9.24-9.22,11.9c-3.95,2.67-8.53,4-13.73,4s-8.95-.9-11.84-2.69c-2.89-1.79-5.23-3.8-7.02-6.04h-1.28l-3.11,7.51h-14.22v-94.97h18.62ZM1039.07,951.51c-3.26,0-5.84.67-7.75,2.01-1.91,1.34-3.31,3.36-4.18,6.04s-1.35,6.08-1.43,10.19v2.01c0,6.63.98,11.71,2.93,15.23,1.95,3.52,5.51,5.28,10.68,5.28,3.82,0,6.87-1.77,9.12-5.31,2.26-3.54,3.39-8.65,3.39-15.32s-1.14-11.7-3.42-15.08c-2.28-3.38-5.39-5.07-9.34-5.07Z"/>
      </g>
      <g>
        <path class="cls-3" d="M276.04,1108.87c-3.55,0-6.8-.73-9.76-2.2-2.95-1.46-5.48-3.41-7.6-5.83-2.11-2.42-3.74-5.2-4.9-8.32s-1.73-6.31-1.73-9.58.61-6.67,1.84-9.79c1.22-3.12,2.92-5.88,5.08-8.28,2.16-2.4,4.7-4.31,7.63-5.72,2.93-1.42,6.1-2.12,9.5-2.12s6.8.76,9.76,2.27c2.95,1.51,5.47,3.49,7.56,5.94,2.09,2.45,3.71,5.22,4.86,8.32,1.15,3.1,1.73,6.25,1.73,9.47,0,3.41-.61,6.67-1.84,9.79-1.22,3.12-2.9,5.87-5.04,8.24-2.14,2.38-4.67,4.27-7.6,5.69-2.93,1.42-6.1,2.12-9.5,2.12ZM257.11,1082.95c0,2.78.46,5.46,1.37,8.03.91,2.57,2.21,4.85,3.89,6.84,1.68,1.99,3.67,3.58,5.98,4.75,2.3,1.18,4.87,1.76,7.7,1.76s5.5-.62,7.85-1.87c2.35-1.25,4.34-2.88,5.98-4.9,1.63-2.02,2.89-4.3,3.78-6.84.89-2.54,1.33-5.13,1.33-7.78,0-2.78-.47-5.46-1.4-8.03-.94-2.57-2.24-4.83-3.92-6.8-1.68-1.97-3.67-3.54-5.98-4.72-2.3-1.18-4.85-1.76-7.63-1.76s-5.5.61-7.85,1.84c-2.35,1.22-4.34,2.84-5.98,4.86-1.63,2.02-2.89,4.3-3.78,6.84-.89,2.54-1.33,5.14-1.33,7.78Z"/>
        <path class="cls-3" d="M370.36,1066.75v41.76h-5.04v-51.12h3.89l33.84,42.55v-42.48h5.04v51.05h-4.39l-33.34-41.76Z"/>
        <path class="cls-3" d="M512.99,1061.86h-18.22v46.66h-5.04v-46.66h-18.22v-4.46h41.47v4.46Z"/>
        <path class="cls-3" d="M576.42,1108.51v-51.12h17.35c4.08,0,7.64.67,10.69,2.02,3.05,1.34,5.59,3.17,7.63,5.47s3.58,5,4.61,8.1c1.03,3.1,1.55,6.4,1.55,9.9,0,3.89-.58,7.41-1.73,10.55-1.15,3.14-2.8,5.83-4.93,8.06-2.14,2.23-4.7,3.96-7.7,5.18-3,1.22-6.37,1.84-10.12,1.84h-17.35ZM613.21,1082.88c0-3.07-.43-5.89-1.3-8.46-.86-2.57-2.12-4.79-3.78-6.66s-3.68-3.32-6.08-4.36c-2.4-1.03-5.16-1.55-8.28-1.55h-12.31v42.19h12.31c3.17,0,5.96-.54,8.39-1.62,2.42-1.08,4.45-2.57,6.08-4.46,1.63-1.9,2.87-4.13,3.71-6.7.84-2.57,1.26-5.36,1.26-8.39Z"/>
        <path class="cls-3" d="M718.05,1104.05v4.46h-34.34v-51.12h33.7v4.46h-28.66v18.43h24.98v4.25h-24.98v19.51h29.3Z"/>
        <path class="cls-3" d="M783.35,1108.51v-51.05h5.04v29.66l28.15-29.74h5.54l-20.88,22.46,21.96,28.66h-5.54l-19.58-25.7-9.65,10.01v15.7h-5.04Z"/>
        <path class="cls-3" d="M261.75,1182.59c0-3.07.54-6.13,1.62-9.18,1.08-3.05,2.65-5.77,4.72-8.17,2.06-2.4,4.61-4.36,7.63-5.87,3.02-1.51,6.46-2.27,10.3-2.27,4.56,0,8.46,1.03,11.7,3.1,3.24,2.06,5.63,4.75,7.16,8.06l-3.96,2.45c-.82-1.68-1.81-3.1-2.99-4.25-1.18-1.15-2.44-2.09-3.78-2.81-1.34-.72-2.74-1.24-4.18-1.55s-2.86-.47-4.25-.47c-3.07,0-5.78.62-8.14,1.87-2.35,1.25-4.33,2.88-5.94,4.9-1.61,2.02-2.82,4.28-3.64,6.8-.82,2.52-1.22,5.08-1.22,7.67,0,2.83.49,5.54,1.48,8.14.98,2.59,2.33,4.88,4.03,6.88,1.7,1.99,3.72,3.58,6.05,4.75,2.33,1.18,4.86,1.76,7.6,1.76,1.44,0,2.92-.18,4.43-.54,1.51-.36,2.98-.94,4.39-1.73,1.42-.79,2.72-1.78,3.92-2.95,1.2-1.17,2.21-2.6,3.02-4.28l4.18,2.16c-.82,1.92-1.97,3.61-3.46,5.08-1.49,1.46-3.14,2.7-4.97,3.71-1.82,1.01-3.76,1.78-5.8,2.3-2.04.53-4.04.79-6.01.79-3.5,0-6.72-.77-9.65-2.3-2.93-1.54-5.45-3.54-7.56-6.01-2.11-2.47-3.76-5.28-4.93-8.42-1.18-3.14-1.76-6.35-1.76-9.61Z"/>
        <path class="cls-3" d="M370.32,1208.51v-51.12h21.6c2.21,0,4.24.47,6.08,1.4,1.85.94,3.44,2.16,4.79,3.67,1.34,1.51,2.39,3.23,3.13,5.15.74,1.92,1.12,3.86,1.12,5.83s-.28,3.66-.83,5.36c-.55,1.71-1.32,3.24-2.3,4.61-.98,1.37-2.17,2.52-3.56,3.46-1.39.94-2.95,1.57-4.68,1.91l12.53,19.73h-5.69l-12.02-18.86h-15.12v18.86h-5.04ZM375.36,1185.19h16.7c1.49,0,2.84-.32,4.07-.97,1.22-.65,2.27-1.52,3.13-2.63.86-1.1,1.54-2.35,2.02-3.74.48-1.39.72-2.86.72-4.39s-.28-3.01-.83-4.43c-.55-1.42-1.3-2.65-2.23-3.71-.94-1.05-2.04-1.9-3.31-2.52-1.27-.62-2.6-.94-4-.94h-16.27v23.33Z"/>
        <path class="cls-3" d="M507.48,1204.05v4.46h-34.34v-51.12h33.7v4.46h-28.66v18.43h24.98v4.25h-24.98v19.51h29.3Z"/>
        <path class="cls-3" d="M607.13,1204.05v4.46h-34.34v-51.12h33.7v4.46h-28.66v18.43h24.98v4.25h-24.98v19.51h29.3ZM583.16,1149.47v-6.77h4.18v6.77h-4.18ZM593.88,1149.47v-6.77h4.18v6.77h-4.18Z"/>
        <path class="cls-3" d="M706.78,1204.05v4.46h-34.34v-51.12h33.7v4.46h-28.66v18.43h24.98v4.25h-24.98v19.51h29.3Z"/>
        <path class="cls-3" d="M772.08,1208.51v-51.12h21.6c2.21,0,4.24.47,6.08,1.4,1.85.94,3.44,2.16,4.79,3.67,1.34,1.51,2.39,3.23,3.13,5.15.74,1.92,1.12,3.86,1.12,5.83s-.28,3.66-.83,5.36c-.55,1.71-1.32,3.24-2.3,4.61-.98,1.37-2.17,2.52-3.56,3.46-1.39.94-2.95,1.57-4.68,1.91l12.53,19.73h-5.69l-12.02-18.86h-15.12v18.86h-5.04ZM777.12,1185.19h16.7c1.49,0,2.84-.32,4.07-.97s2.27-1.52,3.13-2.63c.86-1.1,1.54-2.35,2.02-3.74.48-1.39.72-2.86.72-4.39s-.28-3.01-.83-4.43c-.55-1.42-1.3-2.65-2.23-3.71-.94-1.05-2.04-1.9-3.31-2.52-1.27-.62-2.6-.94-4-.94h-16.27v23.33Z"/>
        <path class="cls-3" d="M164.41,1308.51v-51.12h5.04v51.12h-5.04Z"/>
        <path class="cls-3" d="M243.1,1266.75v41.76h-5.04v-51.12h3.89l33.84,42.55v-42.48h5.04v51.05h-4.39l-33.34-41.76Z"/>
        <path class="cls-3" d="M354.48,1266.75v41.76h-5.04v-51.12h3.89l33.84,42.55v-42.48h5.04v51.05h-4.39l-33.34-41.76Z"/>
        <path class="cls-3" d="M481.42,1308.87c-3.55,0-6.8-.73-9.76-2.2-2.95-1.46-5.48-3.41-7.6-5.83-2.11-2.42-3.74-5.2-4.9-8.32s-1.73-6.31-1.73-9.58.61-6.67,1.84-9.79c1.22-3.12,2.92-5.88,5.08-8.28,2.16-2.4,4.7-4.31,7.63-5.72,2.93-1.42,6.1-2.12,9.5-2.12s6.8.76,9.76,2.27c2.95,1.51,5.47,3.49,7.56,5.94,2.09,2.45,3.71,5.22,4.86,8.32,1.15,3.1,1.73,6.25,1.73,9.47,0,3.41-.61,6.67-1.84,9.79-1.22,3.12-2.9,5.87-5.04,8.24-2.14,2.38-4.67,4.27-7.6,5.69-2.93,1.42-6.1,2.12-9.5,2.12ZM462.48,1282.95c0,2.78.46,5.46,1.37,8.03.91,2.57,2.21,4.85,3.89,6.84,1.68,1.99,3.67,3.58,5.98,4.75,2.3,1.18,4.87,1.76,7.7,1.76s5.5-.62,7.85-1.87c2.35-1.25,4.34-2.88,5.98-4.9,1.63-2.02,2.89-4.3,3.78-6.84.89-2.54,1.33-5.13,1.33-7.78,0-2.78-.47-5.46-1.4-8.03-.94-2.57-2.24-4.83-3.92-6.8-1.68-1.97-3.67-3.54-5.98-4.72-2.3-1.18-4.85-1.76-7.63-1.76s-5.5.61-7.85,1.84c-2.35,1.22-4.34,2.84-5.98,4.86-1.63,2.02-2.89,4.3-3.78,6.84-.89,2.54-1.33,5.14-1.33,7.78Z"/>
        <path class="cls-3" d="M568.61,1257.39l18.29,44.86,18.22-44.86h5.26l-21.31,51.12h-4.39l-21.31-51.12h5.26Z"/>
        <path class="cls-3" d="M707.86,1304.05v4.46h-34.34v-51.12h33.7v4.46h-28.66v18.43h24.98v4.25h-24.98v19.51h29.3Z"/>
        <path class="cls-3" d="M807.51,1304.05v4.46h-34.34v-51.12h33.7v4.46h-28.66v18.43h24.98v4.25h-24.98v19.51h29.3Z"/>
        <path class="cls-3" d="M872.81,1308.51v-51.12h21.6c2.21,0,4.24.47,6.08,1.4,1.85.94,3.44,2.16,4.79,3.67s2.39,3.23,3.13,5.15c.74,1.92,1.12,3.86,1.12,5.83s-.28,3.66-.83,5.36c-.55,1.71-1.32,3.24-2.3,4.61-.98,1.37-2.17,2.52-3.56,3.46-1.39.94-2.95,1.57-4.68,1.91l12.53,19.73h-5.69l-12.02-18.86h-15.12v18.86h-5.04ZM877.85,1285.19h16.7c1.49,0,2.84-.32,4.07-.97,1.22-.65,2.27-1.52,3.13-2.63.86-1.1,1.54-2.35,2.02-3.74.48-1.39.72-2.86.72-4.39s-.28-3.01-.83-4.43c-.55-1.42-1.3-2.65-2.23-3.71-.94-1.05-2.04-1.9-3.31-2.52-1.27-.62-2.6-.94-4-.94h-16.27v23.33Z"/>
      </g>
    </g>
  </g>
</svg>